<svg width="51" height="75" viewBox="0 0 51 75" fill="none" xmlns="http://www.w3.org/2000/svg">
<path d="M25.8114 74.1865C11.0787 74.1865 1.53711 65.9797 0.597778 54.7078L0.54834 54.1145H9.1012L9.15063 54.6089C9.89221 61.6292 16.3192 66.4741 25.8114 66.4741C35.1553 66.4741 41.5328 61.2336 41.5328 53.6696V53.5707C41.5328 44.8201 35.2542 39.9257 25.2676 39.9257H16.3192V32.411H24.8721C33.3755 32.411 39.3081 27.1705 39.3081 20.0514V19.9525C39.3081 12.4873 34.4137 8.18616 25.7125 8.18616C17.308 8.18616 11.3259 12.6356 10.5844 19.8536L10.5349 20.348H1.98206L2.03149 19.8536C3.16858 8.2356 12.3641 0.473755 25.7125 0.473755C39.3081 0.473755 48.2565 8.03784 48.2565 18.8649V18.9637C48.2565 27.7638 42.0272 33.7953 33.1283 35.674V35.8717C43.5104 36.7616 50.5801 43.238 50.5801 53.3729V53.4718C50.5801 65.3865 40.0991 74.1865 25.8114 74.1865Z" fill="url(#paint0_linear_6_88)"/>
<defs>
<linearGradient id="paint0_linear_6_88" x1="25.5642" y1="0.473755" x2="25.5642" y2="74.1865" gradientUnits="userSpaceOnUse">
<stop stop-color="#A3A3A3"/>
<stop offset="1" stop-color="#A3A3A3" stop-opacity="0"/>
</linearGradient>
</defs>
</svg>
