<svg width="51" height="74" viewBox="0 0 51 74" fill="none" xmlns="http://www.w3.org/2000/svg">
<path d="M25.3058 73.1865C11.6608 73.1865 1.92139 64.6831 0.883179 53.0651L0.83374 52.5212H9.58435L9.63379 52.9167C10.5237 59.9865 16.8518 65.3752 25.4047 65.3752C35.0946 65.3752 41.8182 58.6516 41.8182 49.0605V48.9617C41.7688 39.5684 34.9957 32.8447 25.553 32.8447C20.708 32.8447 16.5552 34.2784 13.3911 37.1459C12.1057 38.3324 10.9686 39.7167 10.0293 41.3481H2.16858L5.82703 0.660278H46.6632V8.57043H13.1439L10.7214 32.5481H10.9192C14.281 27.7526 20.2136 25.1818 27.135 25.1818C40.8295 25.1818 50.7172 35.1189 50.7172 48.8134V48.9122C50.6677 63.2 40.1373 73.1865 25.3058 73.1865Z" fill="url(#paint0_linear_6_93)"/>
<defs>
<linearGradient id="paint0_linear_6_93" x1="25" y1="1" x2="25" y2="72" gradientUnits="userSpaceOnUse">
<stop stop-color="#A3A3A3"/>
<stop offset="1" stop-color="#A3A3A3" stop-opacity="0"/>
</linearGradient>
</defs>
</svg>
