<svg width="24" height="24" viewBox="0 0 24 24" fill="none" xmlns="http://www.w3.org/2000/svg">
<path d="M8 11V16M11 10V12M11 16V12.2297C11 11.5147 11.5047 10.8991 12.2058 10.7588L13.6078 10.4784C14.8454 10.2309 16 11.1775 16 12.4396V16M8 8H8.01M3 12C3 9.48639 3 8.22958 3.35354 7.21924C3.98676 5.40959 5.40959 3.98676 7.21924 3.35354C8.22958 3 9.48639 3 12 3C14.5136 3 15.7704 3 16.7808 3.35354C18.5904 3.98676 20.0132 5.40959 20.6465 7.21924C21 8.22958 21 9.48639 21 12C21 14.5136 21 15.7704 20.6465 16.7808C20.0132 18.5904 18.5904 20.0132 16.7808 20.6465C15.7704 21 14.5136 21 12 21C9.48639 21 8.22958 21 7.21924 20.6465C5.40959 20.0132 3.98676 18.5904 3.35354 16.7808C3 15.7704 3 14.5136 3 12Z" stroke="#303A47" stroke-width="2" stroke-linecap="round" stroke-linejoin="round"/>
</svg>
